<svg xmlns="http://www.w3.org/2000/svg" viewBox="0 0 512 512">
  <defs><linearGradient id="bg" x1="0" y1="0" x2="1" y2="1"><stop stop-color="#FFE1D5"/><stop offset=".5" stop-color="#FFF4C7"/><stop offset="1" stop-color="#BFE8D8"/></linearGradient><filter id="s"><feDropShadow dx="0" dy="18" stdDeviation="16" flood-color="#9B6C5C" flood-opacity=".24"/></filter></defs>
  <rect x="28" y="28" width="456" height="456" rx="118" fill="url(#bg)"/>
  <circle cx="256" cy="244" r="146" fill="#FFF9F6" filter="url(#s)"/>
  <path d="M256 116c42 32 72 70 90 116-34-12-65-14-90-5-25-9-56-7-90 5 18-46 48-84 90-116Z" fill="#FF9B8D"/>
  <path d="M256 372c-42-32-72-70-90-116 34 12 65 14 90 5 25 9 56 7 90-5-18 46-48 84-90 116Z" fill="#70C6AA"/>
  <path d="M256 164l30 80-30 80-30-80 30-80Z" fill="#FFD56A" stroke="#6B4F3F" stroke-width="12" stroke-linejoin="round"/>
  <circle cx="256" cy="244" r="18" fill="#6B4F3F"/>
  <path d="M142 355c40 20 78 28 114 23M256 378c43 1 82-9 116-31" fill="none" stroke="#7A5B4B" stroke-width="15" stroke-linecap="round"/>
  <circle cx="142" cy="355" r="18" fill="#A0D8EF"/><circle cx="372" cy="347" r="18" fill="#C3B1E1"/>
</svg>
